<?xml version="1.0" encoding="UTF-8"?>
<svg id="vacuum-logo" xmlns="http://www.w3.org/2000/svg" viewBox="0 0 1400 680">
  <path d="M1177.02,384c1.69,1.16,3.35-2.82,4.47-4.01,6.52-6.99,13.47-9.36,22.97-10.03,30.59-2.15,65.08.7,95.78,1.31,20.32,4.03,24.65,17.11,25.81,36.19.91,52.95.16,111.02,0,165.08-.07,5.49-2.76,9.88-8.52,10.48-5.28.56-19.95.7-24.97-.08-3.15-.49-5.47-2.62-6.34-5.66l-.2-158.8c-1.02-9.54-5.9-9.95-14.47-10.53-16.58-1.13-43.58-1.29-60.04.05-9.1.74-12.74,1.62-13.55,11.45l.05,155.05c-.35,3.37-1.41,6.95-4.95,8.05-3.03.94-24.94,1-28.34.24s-5.94-4.22-6.47-7.53l-.19-157.81c.27-8.32-7.97-9.05-14.5-9.5-16.68-1.14-42.41-1.14-59.09,0-4.64.32-12.43.94-14.01,5.99l-.88,162.12c-.79,3.44-3.56,6.32-7.12,6.88-4.47.7-21.43.71-25.9,0-5.94-.94-7.18-6.17-7.59-11.41-2.11-52.01-1.27-109.57,0-161.08,1.68-20.01,3.58-34.78,25.81-39.19,31.02-.59,65.86-3.48,96.78-1.31,10.03.7,17.34,3.44,24.02,11.02,1.03,1.17,1.32,2.93,1.46,3.02h-.02Z" style="fill: #63c4fe;"/>
  <path d="M399,451.37v-33.5c0-.89-2.44-5.67-3.6-6.4-1.54-.98-7.76-1.92-9.91-2.09-36.09-.77-73.65.15-114.02.02-3.83-.16-6.83-2.78-7.42-6.58s-.66-21.11.15-24.74,4.76-6.25,8.38-6.62c46.82,0,92.39-.54,131.91-.08,22.03,1.63,32.96,10.93,34.55,33.45,1.14,48.39.6,98.95-.05,147.04-1.67,21.02-11.3,31.06-32.45,32.55-36.64-.06-77.87-.06-115.04-.05-18.75-1.48-29.55-10.35-31.5-29.5-.47-22.78-1.82-46.53.11-74.88,1.04-10.07,6.15-20.88,15.88-25.12,1.73-.75,11.19-3.5,12.5-3.5h110.51ZM399,489.37h-91.5c-.9,0-5.65,2.44-6.4,3.6-.97,1.51-1.93,8.66-2.09,10.91-.62,8.39-.96,30.19,1.45,37.54,1.09,3.33,4.67,5.22,8,5,25.48-.3,55.63.31,82.07-.02,1.46-.16,5.39-1.33,6.23-2.27.3-.34,2.24-5.93,2.24-6.26v-48.5h0Z" style="fill: #62c3fe;"/>
  <path d="M966.75,542.75c1.27-1.35,2.13-6.18,2.29-8.21l.16-157.84c1.35-3.79,4.19-6.3,8.27-6.73,5.06-.53,19.17-.68,23.97.08,4.23.67,7.89,4.98,7.6,9.4-1.21,54.25.22,113.88,0,169.09-1.39,21.21-9.52,32.7-31.55,34.45-37.35.49-77.38.94-116.04.05-10.71-1.07-20.6-3.75-26.65-13.35-5.08-8.05-4.35-17.12-5.85-26.15-1.28-54.17-.66-110.36,0-162.08.55-6.98,1.98-10.67,9.53-11.47,5.12-.54,19.1-.71,23.95.06,3.92.62,6.67,3.93,7.32,7.68l.19,157.81c.6,7.18,2.38,8.9,9.5,9.5,27.95,1.21,55.31.74,81.07-.01,1.51-.17,5.3-1.3,6.22-2.28h.02Z" style="fill: #64c4fe;"/>
  <path d="M766.75,542.75c1.27-1.35,2.13-6.18,2.29-8.21l.16-157.84c1.35-3.79,4.19-6.3,8.27-6.73,5.06-.53,19.17-.68,23.97.08,4.23.67,7.89,4.98,7.6,9.4.08,56.59.41,112.33,0,169.09-1.39,21.21-9.52,32.7-31.55,34.45-37.87.94-77.49.94-116.04.05-10.71-1.07-20.6-3.75-26.65-13.35-5.08-8.05-4.35-17.12-5.85-26.15,0-52.8.05-109.32,0-162.08.55-6.98,1.98-10.67,9.53-11.47,5.12-.54,19.1-.71,23.95.06,3.92.62,6.67,3.93,7.32,7.68l.19,157.81c.6,7.18,2.38,8.9,9.5,9.5,26.4.59,55.21.72,81.07-.01,1.51-.17,5.3-1.3,6.22-2.28h.02Z" style="fill: #64c4fe;"/>
  <path d="M614.72,547.29c1.09.92,2.15,3.65,2.33,5.17.56,4.76.61,19.39-.1,23.99-.49,3.15-2.62,5.47-5.66,6.34l-121.78.2c-21.28-1.7-29.79-12.86-31.5-33.5,1.4-47.49-1.22-96.26-.05-145.04,1.69-23.77,12.12-32.97,35.5-34.5,38.04-1.18,77.11-.4,115.07.02,4.71.82,7.96,2.35,8.49,7.51s.69,19.08-.08,23.97c-.45,2.87-2.23,5.01-4.89,6.11l-100.55.45c-10.2,1.09-12.69,1.84-13.54,12.46.02,37.6.38,75.19,0,112.08.61,6.25,1.22,11.71,8.52,12.48,32.98.49,69.79-1.52,100.07-.07,2.26.19,6.5.93,8.18,2.33h-.01Z" style="fill: #62c3fe;"/>
  <path d="M169.01,535.99l3.26-8.22,45.56-150.45c1.61-3.74,4.82-6.36,8.9-7.09,5.19-.93,19.28-.78,24.82-.27,7.69.7,8.41,3.94,7,11.1l-61.77,194.23c-2.43,6.34-7.87,8.24-14.24,8.76-7.06.57-29.44.86-34.91-2.17-1.68-.93-3.92-3.44-4.84-5.16l-63.75-199.34c-.26-2.43.43-4.94,2.64-6.17,3.23-1.79,24.07-1.68,28.82-1.2,4.31.44,8.63,2.32,10.7,6.3l47.81,159.7v-.02Z" style="fill: #63c4fe;"/>
  <path d="M1044.73,118.23c41.56-6.96,44.09,51.39,7.78,52.83-4.71.19-10.95-3.17-14.06-1.12l-54.99,55.09c-1.08,2.13,1.23,5.62,1.54,8.45,2.24,20.28-16.62,36.01-35.99,28.99-27.47-9.96-21.25-54.18,12.52-51.52,3.12.25,7.87,2.5,9.98,1.13l55.02-55.12c1.19-2.33-1.16-5-1.46-7.54-1.56-13.23,5.51-28.82,19.66-31.19Z" style="fill: #434244;"/>
  <path d="M978.98,270l26.55,44.95c.64,1.11,2.11,3.99,1.4,4.97s-18.97,7.99-21.72,8.79c-12.64,3.64-26.57,4.91-39.61,3.17-8.1-1.08-15.71-4.1-23.61-5.9l21.05-52.96c12.65,4.04,24.21,3.23,35.94-3.03h0Z" style="fill: #93d402;"/>
  <path d="M920,238h-55.5c-2.81,0-.62-13.79-.23-16.23,2.12-13.14,8.24-28.21,15.91-39.09,1.66-2.35,8.8-11.72,11.32-11.72,2.76,0,34.47,34.45,39.44,38.67-6.39,8.49-11.22,17.3-10.94,28.37Z" style="fill: #4e5b32;"/>
  <path d="M1054,237c-.65,16.97-4.4,32.92-12.83,47.67-1.92,3.36-12.56,19.36-15.67,19.37-2.76,0-34.52-34.42-39.4-38.73-.65-2.5,2.43-3.89,3.72-5.98,4.3-6.95,6.78-14.09,7.17-22.33h57.01Z" style="fill: #6da53d;"/>
  <path d="M855,266c-.2.11-2.89,1.12-2.99,1-1.76-2.01,5.23-8.95,3.99-2-.05.26-.91.66-1,1Z" style="fill: #93d402;"/>
  <path d="M860,254c.58-2.86-1.46-10.86,1.64-11.86,4.07-1.32,20.13.08,25.91-.09,2.37-.07,4.54-1.03,6.91-1.09,3.19-.08,22.57-.63,23.45.14.45.39,3.31,10.39,2.19,11.45l-60.43,34.63c-24.44,24.16-56.17,36.42-88.67,45.83-.78.14-1.87.78-3,1-2.72.54-5.16,1.98-8,2v-1c26.17-11.23,87.2-40.22,95-69,.43-.24.68-.64,1-1,1.85-2.1,2.7-6.23,2.99-9-2.05-.15.35,4.69-3.48,2.99-4.06-1.8.75-10.18,3.48-11.99.31,2.16-.4,5.01,0,7,.26,1.3.73,1.3,1,0h.01Z" style="fill: #93d402;"/>
  <path d="M577.99,56.04c.24,1.57-.34,8.7,0,9-4.84,1.7-5.68,3.03-8,7-.87,1.49-.65,2.13-1,3-1.17,2.87-.91,36.93,6,52,4.83,10.6,11.18,21.31,14.58,26.92,13.56,22.36,29.6,43.24,42.42,66.08,13.98,25.12,22.49,62.84,2,87-1.7,2.01-8.63,7.46-11,9-1.38.9-4.79-.07-4,3-6.42-.54-19.09,6.7-27,5,.26-1.26.26-6.74,0-8,4.64-1.4,9.62-.93,14.29-2.25,1.28-.36,1.59-1.71,1.71-1.75,1.15-.38,1.99-.15,4-1,8.75-3.71,10.25-4.45,16-12,15.39-20.19,10.74-43.36,1-65-10.47-23.25-26.33-43.67-40-65-1.63-2.54-3.84-5.17-5-7-11.88-18.7-26.72-47.07-27.07-69.48-.04-2.65,2.33-22.35,3.07-23.52.06-.09,1.87-1.81,2-2,4.01-5.56,9.27-9.38,16-11Z" style="fill: #979298;"/>
  <path d="M815,328c-5.6,1.12-11.4,1.77-17,3-2.29.5-5.03.92-7,2-.4.22-.71.65-1,1-.65.78-1.45.95-2.42,1.04-7.85.74-15.71,1.62-23.58,1.96,2.41-.91,4.71-.74,4-3,1.13-.22,2.22-.86,3-1,23.45-4.23,52.95-11.23,72-27-.12.16-3.36,1.04-4,.99.8-3.47,6.01-3.66,4-.99.56-.46,2.62-.14,3.51-1.99.95-1.96.32-7.63,2.99-2.01,3.85-5.1,8.76-8.43,13.98-12.02,18-12.37,38.31-22.79,57.08-34.01,1.4-.16,1.96.09,2.93,1.06,1.41,1.41,6.88,8.4,6.08,9.97l-35.09,36c-23.58,14.05-52.71,19.66-79.48,25.02v-.02Z" style="fill: #6da53d;"/>
  <path d="M560,69c-7.47-7.22-8.16-19.52-.03-26.53,9.85-8.5,26.68-6.67,36.97.09,2.13,1.4,8.1,8.2,8.69,8.32,1.12.22,14-6.81,16.85-7.9,27.24-10.44,58.77-5.55,86.96-1.91,2.11-13.28,24.35-24.43,35.52-17.52,10.28,6.36,2.04,20.97-.96,29.44,5.98,1.89,11.87,5.9,16.92,9.6,1.61,1.18,4.44,4.95,5.69,5.19,2.05.39,7.62-1.82,10.74-1.71,41.27,1.42,61.67,58.45,28.67,85.45-2.05,1.68-9.92,5.57-10.06,6.14-.98,4.16.37,13.76.09,18.89-.86,15.72-2.96,32.11-5.33,47.67-.62,4.11-3.99,15.46-3.75,18.29.29,3.39,9.2,3.52,7.87,10.75-1.35,7.31-11.41,2.19-11.83,2.74-.14.18-.5,3.29-.97,4.55-6.6,17.75-15.96,34.08-30.57,46.43-2.21,1.87-13.6,9.17-14.04,10.03-.98,1.92,2.45,6.35,1.56,8.99-.62-.06-1.38-.06-2,0,0-1.3-1.68-7.75-2.01-8-.7-.52-6.22,2.57-7.35,3.19-1.4.76-3.18.36-2.64,2.81-2.09-1.55-3.75-3.83-4-4,35.1-12.95,54.75-43.44,62.69-78.81,6.06-26.98,8.08-55.62,8.3-83.19-18.85.89-24.75-14.28-30.55-29-.54-1.38-.15-3.23-.44-4.01h1c6.3,15.64,12.6,31.34,32.53,29.03,13.18-1.53,23.56-22.53,24.51-34.49,2.1-26.2-20.14-52.65-47.43-49.43-12.8,1.51-18.18,12.49-17.65,24.44.09,2.12,1.58,14.09,2.04,15.46h-1c-4.21-15.26-7.91-30.76,8-40.5-11.6-10.91-26.46-18.04-41.78-22.22-23.56-6.44-61.75-9.26-85.22-4.28-1.16.25-2.51.05-4,.45-3.39.92-22.68,8.81-23.81,10.72-1.25,2.12,1.72,5.23-.19,6.82-.49-.28-1.44-.74-2-1-3.99-15.85-25.22-24.7-39.68-18.18-10.6,4.79-11.35,16.86-4.28,25.24-.13.19-1.98,1.9-2.04,1.99v-.04ZM741.99,51c.78-.57,5.25-16.25,5.05-18.51-1-11.19-15.08-9.02-22.42-5.37-3.42,1.7-14.37,10.78-11.54,14.8.48.68,13.66,3.58,16.14,4.36,2.01.63,12.22,5.12,12.77,4.72h0ZM786.49,246.02c-1.31.06-5.66,11.34,2.81,8.8,6.24-1.87-.57-8.9-2.81-8.8Z" style="fill: #455463;"/>
  <path d="M529,271h47c.11,1.29-.24,5.76,0,6.01s5.58-.09,7.01,0c1.73.1,3.35.52,5,1,.4,1.76,1.47,3.28,2,6,.61,3.14,1.04,6.79,1,10-.05,4.2-.47,12.11-5.52,12.98-1.86.32-9.13-.35-9.49.02-.15.15.03,2.23,0,3h-46c-2.19-13.95-4.48-21.96-13.44-33.04-2.43-3.01-6.21-3.31-6.56-5.96h19ZM576,303c2.61-.23,6.53.8,8.6-.9,2.96-2.43,2.75-16.76.5-19.69-1.79-2.34-6.41-1.18-9.1-1.4v22h0Z" style="fill: #b585fb;"/>
  <path d="M959,142v57c-3.59-.1-7.59.5-11.02,1.48s-7.8,4.72-10.54,2.61l-28.45-47.57c15.19-8.55,32.36-14.13,50.02-13.52h-.01Z" style="fill: #6da53d;"/>
  <path d="M891,311l2.51-.94c13.56-13.49,26.67-27.51,38.47-42.61.8-.84,7.6,3.35,7.86,3.72.66.96.06,2.76-.3,3.86l-21.68,49.82c-2.23.54-4.61-.08-6.85.15-2.02.21-1.97.65-3,1-39.4,1.9-78.65,6.51-118,8,.29-.35.6-.78,1-1,2.54.8,5.06-.76,7-1,5.91-.72,11.53-2.13,17-3,22.45-3.59,45.46-5.19,67-13,.96-.35,1.79-.51,3-1,1.71-.69,5.37-.14,5-4h1-.01Z" style="fill: #4e5b32;"/>
  <path d="M1053,234h-55.5c-1.29,0-3.02-8.29-2.02-9.97l41.03-41.01c10.21,14.69,17.26,32.85,16.5,50.98h-.01Z" style="fill: #4e5b32;"/>
  <path d="M962,142c17.77.91,35.39,6.43,50.01,16.51.27,1.27-.84,1.72-1.5,2.5-11.66,13.71-27.48,25.91-39.53,39.52-.83.4-8.98-1.08-8.98-1.53v-57Z" style="fill: #4e5b32;"/>
  <path d="M690,295c.41,2.25,3.76,1.89,3.9,2.06.75.87-.74,4.54-.14,6.64.86,3.04,7.74,13.78,10.76,14.29,3.47.58,13.57.03,16.48,2.02.25.17,1.91,2.45,4,4,3.95,2.95,3.43,3.38,9.59,3.05,1.37-.07,2.26-1.04,2.41-1.05.62-.06,1.38-.06,2,0,.14.01.71.84,1.57.94,1.9.21,3.85-.14,5.74.26,3.39.72,8.1,6,7.7,9.8-.64.29-1.39,1.47-2,2-23.11.68-46.36-.51-69.5,0-3.87-.5-2.34-4.52-1.5-7,.31-.91,2.85-2.65,2-5,.76-.07,5.64-.94,5.88-1.13.21-.17,1.14-4.56,1.1-5.32s-5.16-12.7-6.05-14.78c-.31-.72-1.55-.69-2.1-2.18-.96-2.59.24-4.21.17-4.59,4.68-.29,7.7,1.27,8-4h-.01Z" style="fill: #626366;"/>
  <path d="M491.99,264.49c11.49,3.64,11.52,4.51,18.01,9.71,7.21,1.37,17.59,25.98,14.99,22.8,5.16,8.83.25,20.27,7,28.5l7,6.5c-12.31.26-24.69-.19-37,0v-1c14.41-15.79,8.31-41.68-12.02-48.48-15.22-5.09-33.33,3.58-36.98,19.48h-1c.86-13.31.42-33,15.89-39.24,0,0,6.96-3.7,24.11,1.73Z" style="fill: #333134;"/>
  <path d="M540,310c1.01,1.67,3.81.99,5.49,1.01,7.66.09,15.36.08,23.02,0,1.68-.02,4.48.65,5.49-1.01h2c-.03,1,.03,2,0,3-2.2.37-.78,7.75,0,6,.35-.79-.04-4.49,0-6,1.96-.33,4.83.04,7,0,4.28,2.84,2.74,9.39,3,14-3.02.21-7.86-.62-10.32-.03-.94.23-1.18,2.49-2.71,3.49-1.95,1.29-6.23,1.22-6.79,1.73-.44.4-.28,1.95-.73,2.72-2,3.37-8.44,3.83-11.83,1.96-2.45-1.35-3.08-4.16-4.32-4.93-1.85-1.15-4.14-.49-5.31-.94-6.2-2.36-12.49-6.75-13.76-13.73-.46-2.54.11-5.07-.24-7.27h10.01Z" style="fill: #333134;"/>
  <path d="M492,267.91c4.91,1.38,9.51,3.74,13.46,6.97,11.22,9.19,17.03,20.98,17.25,22.38.62,3.88.03,11.89-6,10.1-3.66-1.08-5.9-13.6-9.16-17.93-11.47-15.23-31.72-15.47-49-9.33-1.64-9.11,12.27-16.05,12.27-16.05,2.53-1.16,7.89.11,21.18,3.85Z" style="fill: #434244;"/>
  <path d="M982,267l40.04,38.46c.56.51,1.09,1.1.91,1.93s-11.66,11-13.53,7.68c-7.48-14.2-18.57-28.19-25.61-42.4-.9-1.83-2.15-3.45-1.82-5.67h.01Z" style="fill: #4e5b32;"/>
  <path d="M906.92,158.06l28.08,48.94-40.98-39.5c1.54-1.93,11.18-10.64,12.9-9.44h0Z" style="fill: #93d402;"/>
  <path d="M589,169c7.97,30.25-7.41,60.54-4.99,90.49.49,6.07,2.65,12.56,3.99,18.51-1.65-.48-3.27-.9-5-1-1.9-9.96-3.35-19.28-3-29.5.09-2.61,1.54-4.94,1-7.97-.6-3.37-10.91-12.65,1.99-10.52,1.31-13.59,5.77-27.78,5-41.51-.47-8.42-3.35-17.1-4-25.5,1.16,1.83,3.37,4.46,5,7h.01ZM583,230c-2.09-2.13-6.68,3.43-1.49,5.99.77-.8,1.8-5.68,1.49-5.99Z" style="fill: #455463;"/>
  <path d="M623,316c2.99.94,9,4.69,11.7,4.82.87.04,3.45-2.07,5.3-2.82-1.16,4.64-5.19,8.89-5.91,13.58-.5,3.23-1.11,6.95,2.65,7.24,4.18.33,4.22-5.34,6.06-8.53s4.73-5.81,6.21-9.29c.53,1.2,1.13,3.94,1.62,4.05,9,1.89,23.27,2.81,32.38,1.95.85,2.35-1.69,4.09-2,5-11.39-.26-22.99-.86-33.96-4-2.3,4.93-3.32,15.78-10.45,15-11.21-1.22-2.22-17.35-3.64-18.95-4.58,0-9.94-4.71-13.95-5.05-.79-3.07,2.62-2.1,4-3h-.01Z" style="fill: #455463;"/>
  <path d="M505,258c8.64.23,17.35.64,26,1,.13,0,1.06.99,2.41,1.05,9.16.35,18.43-.35,27.59-.05v1c-1.53.08-4.08.95-7,1-5.32.09-10.68-.02-16,0h-5c-5.99,0-12.01.04-18,0-9.17-.05-18.2-.58-27-1,.3-1.66,2.37-2.24,3-3,4.65.09,9.35-.12,14,0Z" style="fill: #333134;"/>
  <path d="M488,261c8.5.17,16.89.16,27,1v1c-6.5-.78-8.29,1.63-14.97,1.06,0,0,8.3,3.04,16.53,12.89,8.97,11.12,11.33,17.57,13.44,31.07.35,2.2.53,6.88,1,9.42,1.27,6.98,6.81,11.2,13,13.55,0,0-3.56.97-5,1l-7-6.5c-6.75-8.23-3-17.87-7.5-29.05-7.53-17.71-13.63-19.94-15.32-21.48-4.74-4.37-12.59-7.29-17.27-8.95-9.12-3.22-13.91-4.02-13.91-4.02,3.68-1.27,6.04-1.19,10-1h0Z" style="fill: #979298;"/>
  <path d="M558,257c-1.01,1.67-3.81,1-5.49,1.01-5.34.05-10.68-.09-16.02-.03-1.68.02-4.48-.66-5.49,1.01-8.65-.36-17.36-.77-26-1,2.57-2.05,7.19-.7,10.59-.95,1.35-.1,2.28-1.04,2.41-1.05,10.31-.55,27.65-1.1,37.6-.05,1.52.16,1.73.78,2.4,1.05h0Z" style="fill: #455463;"/>
  <path d="M518,256c-.13,0-1.07.95-2.41,1.05-3.4.25-8.02-1.09-10.59.95-4.65-.12-9.35.09-14,0,.18-.21-.58-1.75.62-2.04,2.56-.62,6.77.96,9.41-.44,1.46-.77,1.57-3.29,2.66-3.55,3.47-.83,14.04-1.08,14.31,4.03h0Z" style="fill: #434244;"/>
  <path d="M592,316c.26,1.26.26,6.74,0,8-.63,3.03-3.69,2.84-6,3-.26-4.61,1.28-11.16-3-14,.12,0,.62-.88,1.45-.88,2.19,0,7.03,1.39,7.55,3.88Z" style="fill: #434244;"/>
  <path d="M574,265h-1.35c-1.28,3.56-6.12,1.67-9.65,2-.33.03-.67-.03-1,0l-8-5c2.92-.05,5.47-.92,7-1,5-.28,9.9-.17,13,4Z" style="fill: #455463;"/>
  <path d="M561,260c-9.16-.31-18.43.4-27.59.05-1.35-.05-2.28-1.04-2.41-1.05,1.01-1.67,3.81-.99,5.49-1.01,5.34-.06,10.68.08,16.02.03,1.68-.02,4.48.65,5.49-1.01,1.64.66,3.17.18,3,3h0Z" style="fill: #434244;"/>
  <path d="M574,265c2.08,2.79,1.7,2.59,2,6h-11v-1.35l-1.99-1.3v-1.35c3.53-.33,8.36,1.56,9.64-1.99h1.35Z" style="fill: #434244;"/>
  <path d="M815,328v1c-5.47.87-11.09,2.28-17,3v-1c5.6-1.23,11.4-1.88,17-3Z" style="fill: #dad1b6;"/>
  <path d="M911,325c-.76,5.47-3.31,5.78-8,3.99.52-1.53,3.54-2.49,5-2.99,1.03-.35.98-.79,3-1Z" style="fill: #626366;"/>
  <path d="M760,336l3,2c-3.48,1.01-7.87.91-11,1,.61-.53,1.36-1.71,2-2,1.13-.5,2.84-.5,4-1,.37-.16.68-.87,1-1,.28-.12.72.12,1,0v1Z" style="fill: #6da53d;"/>
  <path d="M841.99,260c1.77,1.36,1.72,8.21-2.98,6.99-.44-1.33.44-8.95,2.98-6.99Z" style="fill: #93d402;"/>
  <path d="M812,335c1.72,1.58-5,6.46-5.99,2.48-.67-2.71,5.39-3.03,5.99-2.48Z" style="fill: #626366;"/>
  <path d="M882,316c-.92-5.29,8.2-5.92,3-1-1.21.49-2.04.65-3,1Z" style="fill: #626366;"/>
  <path d="M768,334c.71,2.26-1.59,2.09-4,3-.27.1-.6.88-1,1l-3-2c2.84-.02,5.28-1.46,8-2Z" style="fill: #dad1b6;"/>
  <path d="M836,284.01c-.1.11-2.89.1-2.99,0-.7-.7,1.47-4.22,2.5-4.99.84.52.65,4.81.49,5h0Z" style="fill: #93d402;"/>
  <path d="M885,330.01c-.22.85-1.94,2.78-2.51,2.98-2.51.9-2.78-4.69,2.51-2.98Z" style="fill: #626366;"/>
  <path d="M809,301c1.59,1.59-1.4,4.58-2.99,2.99s1.4-4.58,2.99-2.99Z" style="fill: #6da53d;"/>
  <path d="M452,311l-.81-.65c-1.34-2.87.67-6.24.81-8.35h1c-.82,3.56-1.06,5.18-1,9Z" style="fill: #979298;"/>
  <path d="M851,259c1.55,1.59-1.33,4.56-2.99,2.99-1.03-.97,1.97-4.03,2.99-2.99Z" style="fill: #93d402;"/>
  <path d="M758,336c-2.94-4.54,1.65-6.45,1-1-.32.13-.63.84-1,1Z" style="fill: #979298;"/>
  <path d="M765,328c1.06,1.05-1.36,4.79-1.99,4-.74-.93,0-5.96,1.99-4Z" style="fill: #979298;"/>
  <path d="M890,311c-.02-.18-2.24-2.68-.49-3,2.22-.41,1.43,1.02,1.49,3h-1Z" style="fill: #979298;"/>
  <path d="M778,321c1.6,1.61-1.87,2.88-3,1.99-.57-.45,2.17-2.82,3-1.99Z" style="fill: #4e5b32;"/>
  <path d="M755,328c.11.11.39,2.95-.49,2.99-2.82-1.57-1.05-4.5.49-2.99Z" style="fill: #dad1b6;"/>
  <path d="M847,274.01l-1.99,1.99c-.28-2.09-.1-2.27,1.99-1.99Z" style="fill: #93d402;"/>
  <path d="M859,254h1c-.27,1.3-.74,1.3-1,0Z" style="fill: #dad1b6;"/>
  <path d="M502,332h-1c.34-.31.69-.66,1-1v1Z" style="fill: #979298;"/>
  <path d="M621,101c0,.66.04,1.34,0,2-.17,3.01-1.84,8.3-1.82,11.5.1,12.94,7.03,28.18,16.82,36.5,3.23,11.61,5.7,19.12,8.23,31.27,1.92,9.22,5.81,14.25,9.28,21.72,2.12,4.56,2.75,11.34,4.49,16.01-.82-.09-1.59.9-2,1-1.1.28-2.36-.41-3.49.98s-1.57,5.18-1.51,7.02c.19,5.15,9.32,9.51,14,11-.28,1.98.44,3.69.97,5.52,4.76,16.34,13.25,37.39,16.03,53.48.07.38-1.14,2-.17,4.59.55,1.48,1.79,1.46,2.1,2.18.89,2.08,6,13.99,6.05,14.78s-.89,5.15-1.1,5.32c-.23.19-5.11,1.05-5.88,1.13-9.1.86-23.38-.06-32.38-1.95-.49-.1-1.1-2.85-1.62-4.05-1.54-3.51-2.73-4.37-7-4-2.27-3.69-6.57-5.74-8-10,20.49-24.16,11.98-61.88-2-87,3.41-49.47-32.39-93.17-20-143,3.77,5.44,8.99,17.22,9,24Z" style="fill: #95d5fd;"/>
  <path d="M578,65c1.5-.49,5.18-.1,8.5-.09,7.66.01,19.42,3.7,24.54,9.59.76.87.67,2.08.96,2.5-12.39,49.83,23.41,93.53,20,143-12.82-22.84-28.86-43.72-42.42-66.08-3.4-5.61-7.6-11.71-9.58-17.92l-1-1c-.06-.32.06-.68,0-1-.17-.9-1-7.12-1-7.5v-24c1.16-2.9,3.47-19.31,5.01-20.51.34-.27,7.1,3.54,6.99-1.99-7.66.23-12.81-6.44-20-8,2.32-3.97,3.16-5.3,8-7Z" style="fill: #8cc8ee;"/>
  <path d="M629,234c-10.33,20.17-9.99,44.36-1,65-5.75,7.55-7.25,8.29-16,12-3.64-3.5-7.55-5.53-10.98-9.52-4.53-5.28-7.18-11.78-11.02-17.48-.53-2.72-1.6-4.24-2-6-1.34-5.94-3.5-12.44-3.99-18.51-2.42-29.96,12.97-60.25,4.99-90.49,13.67,21.33,29.53,41.75,40,65Z" style="fill: #8cc8ee;"/>
  <path d="M606,60c.56.26,1.51.72,2,1,1.03.6,7.07,5.12,8,6,4.59,4.32,10.01,16.12,12,22,.32.94.46,2.38,1,4,7.08,21.41,12.94,43.49,20,65,.37,1.12.49,2.49,1,4,2.45,7.21,3.43,9.46,7,16-.95-.74-5.44-2.98-6-3,2.07-1.11.33-3.08-.01-4.49-5.66-23.45-16.14-46.92-22-70.52l-7.99,1.01c0-6.78-5.23-18.56-9-24-.23-.2-.1-.88-.96-2.5-5.12-5.89-16.89-9.58-24.54-9.59-3.32,0-4.19-.16-8.5.09-.34-.3.24-7.43,0-9,7.95-1.91,20.56.54,28,4Z" style="fill: #626366;"/>
  <path d="M628,299c-8.99-20.64-9.33-44.83,1-65,9.74,21.64,14.39,44.81-1,65Z" style="fill: #95d5fd;"/>
  <path d="M606,60c-7.44-3.46-20.05-5.91-28-4-6.73,1.62-11.99,5.44-16,11-7.07-8.38-6.28-20.39,4.32-25.18,14.46-6.52,35.69,2.33,39.68,18.18Z" style="fill: #8cc8ee;"/>
  <path d="M570,72c7.18,1.57,12.33,8.24,20,8,.12,5.52-6.64,1.72-6.99,1.99-1.54,1.2-3.85,17.61-5.01,20.51v24c0,.38.83,6.6,1,7.5-2.6-1.22-2.86-4.52-4-7-1.71-12.66-.17-25.57,2.49-38.01.48-2.23,2.56-7.15,2.57-8.41,0-1.09-9.43-4.62-11.06-5.58.35-.87.13-1.51,1-3Z" style="fill: #455463;"/>
  <path d="M642,317c-.46.04-1.38.75-2,1-1.85.76-4.43,2.87-5.3,2.82-2.7-.13-8.71-3.89-11.7-4.82,2.37-1.54,9.3-6.99,11-9,1.43,4.26,5.73,6.31,8,10Z" style="fill: #8cc8ee;"/>
  <path d="M612,311c-2.01.85-2.85.62-4,1-7.54-3.88-12.07-11.43-17-18,.04-3.21-.39-6.86-1-10,3.85,5.7,6.49,12.2,11.02,17.48,3.43,3.99,7.33,6.02,10.98,9.52Z" style="fill: #455463;"/>
  <path d="M580,136c-.02-.07-.85-.21-1-1l1,1Z" style="fill: #455463;"/>
  <path d="M798,332c-1.94.24-4.46,1.8-7,1,1.97-1.08,4.71-1.5,7-2v1Z" style="fill: #979298;"/>
  <path d="M636,43c23.47-4.98,61.66-2.15,85.22,4.28,15.32,4.18,30.18,11.31,41.78,22.22-15.91,9.73-12.2,25.24-8,40.5,1.55,5.62,4.2,10.16,6,15,.29.78-.1,2.63.44,4.01,5.8,14.72,11.7,29.88,30.55,29-.22,27.56-2.24,56.21-8.3,83.19-7.95,35.37-27.6,65.86-62.69,78.81-2.91-1.98-13.02-1.44-16.48-2.02-3.02-.51-9.89-11.25-10.76-14.29-.6-2.1.89-5.77.14-6.64-.14-.17-3.49.19-3.9-2.06.02-.32.03-.68,0-1-.19-2.05-.96-2.8-1-3-.07-.32.08-.69,0-1-.37-1.5-.97-1.89-1-2-.07-.32.08-.69,0-1-.37-1.48-.97-1.89-1-2-.08-.31.08-.69,0-1-.27-.98-2.12-1.6-2.54-3.09-7.15-15.51-17.01-40.1-11.33-40.59-.39-4.13,5-5.16.88-9.84-1.26-1.43-2.99-1.53-4.25-3.75-3.83-6.74-4.29-19.68-8.77-26.73.43-1.88,1.04-2.51,1-5-.07-4.57-2.8-12.97-5-17-3.57-6.54-4.55-8.79-7-16,41.57,22.76,84.68-12.59,71.5-58-9.27-31.92-44.23-45.78-74.01-32.02-7.47,3.45-15.57,9.72-19.49,17.01-1.99-5.88-7.41-17.68-12-22l8.02-12.48,11.98-11.52h.01ZM724,154c-.37,2.28-1.21,3.49-1.06,6.52.36,7.25,4.9,11.96,12.06,12.48,2.65.19,10.08.45,11.77-1.23,1.98-1.98.5-6.73,1.71-8.79,1.8-3.06,19.86-4.44,12.95-15.9-.89-1.47-4.26-6.12-5.4-7.59-2.81-3.61-7.11-4.09-11.46-3.42-1.58.25-14.53,6.76-16.05,7.94-4.7,3.63-3.7,5.12-4.5,10h-.02Z" style="fill: #95d5fd;"/>
  <path d="M762,125c-1.91-4.74-4.51-10.61-6-15-.46-1.36-1.95-13.33-2.04-15.46-.53-11.95,4.85-22.93,17.65-24.44,27.29-3.22,49.53,23.23,47.43,49.43-.96,11.95-11.33,32.95-24.51,34.49-19.92,2.32-26.22-13.39-32.53-29.03h0ZM785,113.01c-6.25-.47-11.66-.64-14.77,5.72-8.48,17.34,24.3,23.61,20.76,1.28-1.79.6-2.02,2.81-3.61,3.89-4.65,3.19-10.5-2.46-7.28-7.28,1.57-2.34,4.15-1.59,4.89-3.61h.01Z" style="fill: #fefefe;"/>
  <path d="M741.99,51c-.55.4-10.76-4.09-12.77-4.72-2.48-.78-15.66-3.68-16.14-4.36-2.83-4.02,8.13-13.1,11.54-14.8,7.34-3.65,21.42-5.82,22.42,5.37.2,2.26-4.27,17.94-5.05,18.51h0ZM735,42c-.47.42-2.86-1.04-1.99,3,1.63.14,1.82-2.88,1.99-3,1.51-1.08,4.94,2.75,7,1.99.16-1.77-5.94-2.64-5-3.98.21-.3,5.88-1.9,6-4-3.05-.4-5.1,1.63-7.05,3.49-.78.74-.8,2.36-.95,2.5Z" style="fill: #95d5fd;"/>
  <path d="M636,43l-11.98,11.52-8.02,12.48c-.93-.88-6.97-5.4-8-6,1.91-1.59-1.06-4.7.19-6.82,1.13-1.92,20.42-9.8,23.81-10.72,1.49-.4,2.84-.21,4-.45h0Z" style="fill: #8cc8ee;"/>
  <path d="M725,324c-.54-2.45,1.24-2.05,2.64-2.81,1.14-.62,6.65-3.71,7.35-3.19.33.25,2.01,6.7,2.01,8-.15.01-1.05.98-2.41,1.05-6.16.32-5.63-.1-9.59-3.05Z" style="fill: #dad1b6;"/>
  <path d="M786.49,246.02c2.23-.1,9.05,6.93,2.81,8.8-8.47,2.54-4.12-8.74-2.81-8.8Z" style="fill: #dad1b6;"/>
  <path d="M762,125h-1c-1.8-4.84-4.45-9.38-6-15h1c1.49,4.39,4.09,10.26,6,15Z" style="fill: #455463;"/>
  <path d="M515,263c4.77.57,7.54,3.56,13,4l1,3v1h-19l-19.34-8.24c6.67.56,17.83-.53,24.34.26h0Z" style="fill: #333134;"/>
  <path d="M540,267c1.51,1.11,4.23,1.07,4,4h-14l-1-1-1-3c3.94.32,8.04-.23,12,0Z" style="fill: #626366;"/>
  <path d="M538,262c2.7,2.16,7.5,3.89,10,6,.69.58,1.28,2.23,2,3h-6c.23-2.93-2.49-2.89-4-4-2.25-1.66-4.48-3.45-7-5h5Z" style="fill: #434244;"/>
  <path d="M563,267v1.35l1.99,1.3v1.35h-14.99c-.72-.77-1.31-2.42-2-3,3.82-.22,7.78.3,11.59.05,1.38-.09,2.28-1.04,2.41-1.05.33-.03.67.03,1,0Z" style="fill: #626366;"/>
  <path d="M574,310c-1.01,1.67-3.81,1-5.49,1.01-7.66.08-15.36.09-23.02,0-1.68-.02-4.48.66-5.49-1.01h34Z" style="fill: #979298;"/>
  <polygon points="530 271 529 271 529 270 530 271" style="fill: #434244;"/>
  <path d="M687,284c.08.31-.08.69,0,1l1,2c.08.31-.07.68,0,1l1,2c.08.31-.07.68,0,1l.18,2.34.82.66c.03.32.02.68,0,1-.3,5.27-3.32,3.71-8,4-2.78-16.09-11.51-37-16.27-53.34-.53-1.83-2.39-5.16-2.11-7.13,2.37.76,7.89,1.61,9.23,4.12,5.03,13.62,7.79,28.34,14.15,41.35Z" style="fill: #333134;"/>
  <path d="M576,313c-.05,1.51.34,5.2,0,6-.77,1.75-2.19-5.63,0-6Z" style="fill: #979298;"/>
  <path d="M583,230c.31.31-.73,5.19-1.49,5.99-5.18-2.56-.6-8.12,1.49-5.99Z" style="fill: #979298;"/>
  <path d="M649,321c-1.48,3.48-4.44,6.23-6.21,9.29s-1.88,8.86-6.06,8.53c-3.76-.3-3.15-4.01-2.65-7.24.73-4.69,4.75-8.94,5.91-13.58.62-.25,1.54-.96,2-1,4.27-.37,5.46.49,7,4h.01Z" style="fill: #dad1b6;"/>
  <path d="M554,262l8,5c-.13.01-1.03.96-2.41,1.05-3.81.25-7.77-.27-11.59-.05-2.5-2.11-7.3-3.84-10-6,5.32-.02,10.68.09,16,0Z" style="fill: #b585fb;"/>
  <path d="M533,262c2.52,1.55,4.75,3.34,7,5-3.96-.23-8.06.32-12,0-5.46-.44-8.23-3.43-13-4v-1c5.99.04,12.01,0,18,0Z" style="fill: #b585fb;"/>
  <path d="M672.85,242.65c-2.93.85-5.47-1.9-7.85-2.65-4.68-1.49-13.81-5.85-14-11l11.61,7.89c4.67,3.8,13.33.57,9.45-5.22-1.71-2.55-9.9-3.06-13.06-9.67-.71-.29-2.3.31-3-1,.41-.1,1.18-1.09,2-1,.12.32.71,1.4,1,2,3,1.22,4.85,4.48,8.98,4.51-2.09-6.99-6.96-16.3-7.8-23.33-.31-2.61.67-2.54.82-3.18,4.48,7.05,4.94,19.99,8.77,26.73,1.26,2.22,2.99,2.32,4.25,3.75,4.12,4.68,1.76,11.32-1.17,12.17Z" style="fill: #626366;"/>
  <path d="M656,221c.7,1.31,2.29.71,3,1,3.16,6.61,11.35,7.12,13.06,9.67,3.88,5.78-4.78,9.02-9.45,5.22l-11.61-7.89c-.07-1.84.42-5.68,1.51-7.02s2.4-.7,3.49-.98Z" style="fill: #dad1b6;"/>
  <path d="M621,103c3.45-.69,1.41,1.95,2,4v2c.01,14.52,1.58,22.08,10,34,.58.82.87,1.71,2,2,.71,2.53.57,4.44,1,6-9.78-8.32-16.72-23.56-16.82-36.5-.03-3.2,1.65-8.49,1.82-11.5Z" style="fill: #455463;"/>
  <path d="M649,158c-7.06-21.51-12.92-43.59-20-65,7.16-11.7,20.04-19.71,33.6-21.9,39.16-6.34,69.84,31.21,54.16,68.16-11.42,26.92-43.87,33.24-67.76,18.74h0ZM701,114.01c-23.05-5.12-26.3,29.63-3.45,28.04,10.49-.73,13.7-9.66,12.45-19.05-1.9.53-1.82,3.49-4,4.48-6.36,2.9-13.3-2.65-9.86-8.84l4.86-4.64h0Z" style="fill: #fefefe;"/>
  <path d="M650,162c-.51-1.51-.63-2.88-1-4,23.89,14.5,56.34,8.18,67.76-18.74,15.68-36.95-15.01-74.5-54.16-68.16-13.56,2.19-26.44,10.2-33.6,21.9-.54-1.62-.68-3.06-1-4,3.91-7.29,12.02-13.56,19.49-17.01,29.78-13.76,64.74.1,74.01,32.02,13.19,45.4-29.92,80.75-71.5,58h0Z" style="fill: #455463;"/>
  <path d="M724,154c.8-4.87-.19-6.36,4.5-10,1.53-1.18,14.47-7.7,16.05-7.94,4.35-.67,8.65-.19,11.46,3.42,1.14,1.47,4.52,6.12,5.4,7.59,6.91,11.46-11.15,12.84-12.95,15.9-1.21,2.06.28,6.81-1.71,8.79-1.68,1.68-9.12,1.43-11.77,1.23-2.58-2.41.31-11.12-.4-12.04-.63-.82-9.16-4-10.6-6.96h.02ZM757.99,146c-4.74,2.36-6.88,3.54-12.5,3-4.87-.47-8.67-4.97-9.82-4.87-5.8.52-8.56,9.34-1.38,13.07,9.33,4.83,29.4,3.37,23.69-11.2h.01ZM747,162.01c-3.74.17-7.41.12-10.99-1.01.69,4.45-3.95,9.29,2.46,10.06,7.71.92,7.37-2.8,8.53-9.05h0Z" style="fill: #455463;"/>
  <path d="M735,173c-7.16-.52-11.7-5.23-12.06-12.48-.15-3.03.69-4.24,1.06-6.52,1.43,2.96,9.97,6.15,10.6,6.96.71.92-2.18,9.63.4,12.04Z" style="fill: #8cc8ee;"/>
  <path d="M657,178c2.2,4.03,4.93,12.43,5,17-6.14.55-4.77-5.91-6.53-8.97-.95-1.66-3.4-1.98-3.98-3.01-1.04-1.82.26-4.38-1.49-6.02v-1c.13-.02.6-1.02,1-1,.56.02,5.05,2.26,6,3Z" style="fill: #434244;"/>
  <path d="M690,294l-.82-.66-.18-2.34c.04.2.81.95,1,3Z" style="fill: #626366;"/>
  <path d="M689,290l-1-2c.03.11.63.5,1,2Z" style="fill: #626366;"/>
  <path d="M688,287l-1-2c.03.11.63.52,1,2Z" style="fill: #626366;"/>
  <path d="M785,113.01c-.74,2.02-3.32,1.26-4.89,3.61-3.22,4.82,2.63,10.47,7.28,7.28,1.59-1.09,1.81-3.3,3.61-3.89,3.53,22.34-29.25,16.07-20.76-1.28,3.11-6.35,8.52-6.18,14.77-5.72h-.01Z" style="fill: #455463;"/>
  <path d="M735,42c.16-.14.17-1.76.95-2.5,1.95-1.86,4-3.89,7.05-3.49-.12,2.1-5.79,3.7-6,4-.94,1.34,5.16,2.21,5,3.98-2.06.76-5.49-3.07-7-1.99-.17.12-.36,3.14-1.99,3-.86-4.04,1.52-2.58,1.99-3Z" style="fill: #626366;"/>
  <path d="M634,143h-1c-8.42-11.92-9.99-19.48-10-34h1c3.96,11.37,6.71,22.55,10,34Z" style="fill: #fefefe;"/>
  <path d="M635,145c-1.13-.29-1.42-1.18-2-2h1c.1.35.73,1.05,1,2Z" style="fill: #dad1b6;"/>
  <path d="M650,176v1c-4.57-.17-4.1-.46,0-1Z" style="fill: #626366;"/>
  <path d="M624,109h-1v-2c.03.11.67,1.07,1,2Z" style="fill: #979298;"/>
  <path d="M651,175c-.4-.02-.87.98-1,1-4.1.54-4.57.83,0,1,1.75,1.63.45,4.2,1.49,6.02.59,1.03,3.03,1.35,3.98,3.01,1.75,3.06.39,9.52,6.53,8.97.04,2.49-.57,3.12-1,5-.15.64-1.13.57-.82,3.18.84,7.03,5.71,16.34,7.8,23.33-4.13-.03-5.98-3.3-8.98-4.51-.29-.6-.88-1.68-1-2-1.74-4.67-2.37-11.46-4.49-16.01-3.47-7.47-7.36-12.5-9.28-21.72-2.53-12.15-5-19.66-8.23-31.27-.43-1.56-.29-3.47-1-6-.27-.95-.9-1.65-1-2-3.29-11.45-6.04-22.63-10-34-.33-.93-.97-1.89-1-2-.59-2.05,1.45-4.69-2-4,.04-.66,0-1.34,0-2l7.99-1.01c5.86,23.6,16.34,47.07,22,70.52.34,1.41,2.08,3.38.01,4.49Z" style="fill: #333134;"/>
  <path d="M701,114.01l-4.86,4.64c-3.45,6.19,3.49,11.74,9.86,8.84,2.18-.99,2.1-3.95,4-4.48,1.25,9.39-1.96,18.32-12.45,19.05-22.85,1.58-19.6-33.16,3.45-28.04h0Z" style="fill: #455463;"/>
  <path d="M757.99,146c5.71,14.57-14.37,16.03-23.69,11.2-7.19-3.73-4.42-12.55,1.38-13.07,1.15-.1,4.95,4.39,9.82,4.87,5.62.54,7.76-.64,12.5-3h-.01Z" style="fill: #dad1b6;"/>
  <path d="M747,162.01c-1.17,6.26-.83,9.97-8.53,9.05-6.41-.76-1.77-5.6-2.46-10.06,3.58,1.12,7.25,1.18,10.99,1.01h0Z" style="fill: #fefefe;"/>
  <line x1="470.43" y1="285.75" x2="488" y2="285.3" style="fill: none;"/>
  <circle cx="480.76" cy="310.57" r="29.75" style="fill: #b585fb;"/>
  <circle cx="480.76" cy="311" r="22.75" style="fill: #333134;"/>
  <circle cx="479.88" cy="311.13" r="10.67" style="fill: #b585fb;"/>
</svg>